<svg
    width="137"
    height="24"
    fill="none"
    xmlns="http://www.w3.org/2000/svg"
    data-source="https://d19rpgkrjeba2z.cloudfront.net/static/gen/fe6b9b01b5aca5e163e08ecc131c3446.svg"
>
    <path
        fill-rule="evenodd"
        clip-rule="evenodd"
        d="M78.25 7.053c2.136 0 3.776 1.078 4.457 2.065V1.243a.386.386 0 01.235-.356.38.38 0 01.147-.03h3.478a.38.38 0 01.353.238.375.375 0 01.028.148v21.19a.386.386 0 01-.381.384h-3.362a.496.496 0 01-.498-.5v-1.228c-.68.988-2.32 2.068-4.457 2.068-4.117 0-7.275-3.68-7.275-8.058s3.158-8.046 7.275-8.046zm-3.003 8.046c0 2.406 1.578 4.194 3.9 4.194 2.325 0 3.901-1.788 3.901-4.194 0-2.405-1.578-4.193-3.9-4.193-2.323 0-3.9 1.788-3.9 4.193zm-10.256 1.482v-5.106a.385.385 0 01.381-.384h2.979a.38.38 0 00.382-.384V7.776a.385.385 0 00-.382-.384h-2.979a.38.38 0 01-.381-.384v-3.52a.387.387 0 00-.382-.383H61.13a.38.38 0 00-.353.238.386.386 0 00-.029.147c0 3.674-.095 3.888-2.63 3.9a.496.496 0 00-.496.497v2.707a.498.498 0 00.495.497h2.25a.38.38 0 01.381.384v5.937c0 3.771 2.631 5.582 5.913 5.582a9.421 9.421 0 002.405-.258.379.379 0 00.288-.371v-2.927a.386.386 0 00-.306-.374.38.38 0 00-.172.004 5.374 5.374 0 01-1.255.132c-1.827 0-2.631-.739-2.631-2.62zm-41.217-1.482c0-4.563 3.437-8.046 8.144-8.046 4.057 0 7.615 2.59 7.622 7.594 0 .296 0 .634-.033 1.088a.388.388 0 01-.381.362H27.9c.247 2.066 2.072 3.206 4.117 3.206 1.738 0 3.045-.734 3.782-1.651a.376.376 0 01.512-.063l2.544 1.885a.383.383 0 01.082.538c-1.457 1.893-3.872 3.145-6.958 3.145-4.613 0-8.205-3.186-8.205-8.058zm8.023-4.558c-1.583 0-3.347.797-3.749 2.683h7.247c-.371-1.826-1.915-2.683-3.498-2.683zm19.84-3.149h4.089a.38.38 0 01.338.203.385.385 0 01-.02.395l-4.714 7.043a.384.384 0 000 .438l4.814 6.729a.386.386 0 01-.31.609h-4.09a.38.38 0 01-.31-.162l-3.119-4.402-3.116 4.402a.382.382 0 01-.31.162h-4.122a.38.38 0 01-.382-.413.386.386 0 01.071-.196l4.821-6.729a.39.39 0 000-.438L40.56 7.99a.387.387 0 01.12-.543.38.38 0 01.197-.055h4.056a.378.378 0 01.317.171l3.035 4.547 3.034-4.547a.382.382 0 01.317-.171zm81.745-.185c-1.733 0-3.312 1.14-3.839 2.652V7.776a.384.384 0 00-.381-.384h-3.477a.376.376 0 00-.271.112.389.389 0 00-.112.272v14.647a.385.385 0 00.383.384h3.477a.384.384 0 00.381-.384v-6.986c0-2.528 1.333-4.1 3.345-4.1.487 0 .971.065 1.44.193a.381.381 0 00.479-.368V7.689a.384.384 0 00-.309-.377 5.12 5.12 0 00-1.116-.105zm-44.328 7.892c0-4.501 3.652-8.046 8.142-8.046 4.489 0 8.142 3.536 8.142 8.046s-3.652 8.058-8.142 8.058c-4.49 0-8.141-3.556-8.141-8.058zm4.272 0c0 2.375 1.641 4.101 3.87 4.101s3.838-1.726 3.838-4.1c0-2.375-1.609-4.101-3.838-4.101s-3.87 1.726-3.87 4.1zm21.73-8.046c-4.488 0-8.142 3.545-8.142 8.046 0 4.502 3.654 8.058 8.142 8.058 4.488 0 8.142-3.547 8.142-8.058 0-4.51-3.654-8.046-8.142-8.046zm0 12.147c-2.229 0-3.87-1.726-3.87-4.1 0-2.375 1.641-4.101 3.87-4.101s3.839 1.726 3.839 4.1c0 2.375-1.61 4.101-3.839 4.101zM7.21 10.198c1.363-2.016 3.795-3.332 6.645-3.332 4.41 0 7.815 3.15 7.815 7.157v8.4a.386.386 0 01-.382.384h-3.507a.38.38 0 01-.381-.384v-7.816c0-1.736-1.33-3.706-3.545-3.706-2.32 0-3.544 1.97-3.544 3.706v7.814a.388.388 0 01-.383.384H6.42a.379.379 0 01-.382-.382V14.86a.504.504 0 00-.377-.482c-3.084-.843-4.22-3.197-4.299-6.567a.386.386 0 01.235-.362.38.38 0 01.149-.029h2.767v.019h.837a.386.386 0 01.381.37c.04 1.379.316 2.12.967 2.513a.38.38 0 00.51-.125z"
        fill="#93D500"
    />
</svg>
