<svg
    x="0px"
    y="0px"
    width="144px"
    height="22px"
    viewBox="0 0 144 22"
    xmlns="http://www.w3.org/2000/svg"
    xmlns:xlink="http://www.w3.org/1999/xlink"
    xml:space="preserve"
    data-source="https://cdn2.etrade.net/1/17092613100.0/aempros/content/dam/etrade/retail/en_US/images/global/logos/etrade-logo-rgb-144x22.svg"
>
    <g>
        <path
            d="M143.864,4.898c0,0.835-0.678,1.513-1.514,1.513c-0.834,0-1.512-0.677-1.512-1.513c0-0.836,0.678-1.513,1.512-1.513
            C143.187,3.385,143.864,4.062,143.864,4.898z M142.351,3.637c-0.696,0-1.26,0.564-1.26,1.261c0,0.696,0.563,1.261,1.26,1.261
            c0.697,0,1.262-0.565,1.262-1.261C143.612,4.201,143.048,3.637,142.351,3.637z M143.006,4.578c0,0.224-0.234,0.432-0.47,0.432
            c0.132,0.045,0.235,0.164,0.578,0.728h-0.321c-0.253-0.429-0.344-0.691-0.613-0.691h-0.173v0.691h-0.26v-1.63h0.656
            C142.897,4.108,143.006,4.353,143.006,4.578 M142.007,4.822h0.354c0.226,0,0.369-0.062,0.369-0.248
            c0-0.185-0.144-0.247-0.369-0.247h-0.354V4.822 M139.527,18.97h-16.635V3.513h16.349v2.769h-12.616v3.389h8.669v2.778h-8.669v3.596
            h12.902V18.97z M16.771,16.045H3.869v-3.596h8.668V9.671H3.869V6.282h12.616V3.513H0.136V18.97h16.635V16.045z M48.201,6.427h7.437
            V3.513H37.06v2.914h7.394V18.97h3.748V6.427z M101.07,3.513h9.867c6.037,0,9.286,2.636,9.286,7.709
            c0,3.055-1.375,5.097-3.619,6.473c-1.56,0.985-3.748,1.274-6.623,1.274h-8.911V3.513z M109.45,15.899
            c4.752,0,7.054-0.696,7.054-4.75c0-3.317-1.959-4.723-5.493-4.723h-6.151v9.473H109.45z M81.606,18.97h-3.748l9.069-15.457h3.692
            l9.225,15.457h-4.221l-1.929-3.071H83.479L81.606,18.97z M85.081,12.959h7.055l-3.461-6.257L85.081,12.959z M61.784,18.97H58.08
            V3.513h12.476c3.474,0,5.749,2.058,5.749,5.054c0,2.435-1.175,4.016-3.476,4.65l3.888,5.752h-4.18l-3.743-5.476h-7.009V18.97z
            M61.784,10.523h8.368c1.576,0,2.491-0.78,2.491-2.057c0-1.172-0.93-1.985-2.504-1.985h-8.354V10.523z"
        />
        <g>
            <polygon
                fill="#99CC00"
                points="27.17,7.08 30.431,1.433 34.035,3.513 30.774,9.162 37.295,9.162 37.295,13.323 30.774,13.323
                34.035,18.97 30.431,21.052 27.17,15.403 24.767,11.242"
            />
            <polygon
                fill="#6633CC"
                points="27.17,7.08 23.91,1.433 20.306,3.513 23.566,9.162 17.044,9.162 17.044,13.323 23.566,13.323
                20.306,18.97 23.91,21.052 27.17,15.403 29.573,11.242"
            />
        </g>
    </g>
</svg>
